{"title":"The Spirit.2008.x264.AC3(5.1).Multi_Sub.mkv","uid":5429958,"size":1018256997,"categoryP":"video","categoryS":"movies","magnet":"?xt=urn:btih:b5a21e9b19fd2c25f6f490797d3315064644619c&amp;dn=The+Spirit.2008.x264.AC3%285.1%29.Multi_Sub.mkv&amp;tr=udp%3A%2F%2Ftracker.openbittorrent.com%3A80&amp;tr=udp%3A%2F%2Fopen.demonii.com%3A1337&amp;tr=udp%3A%2F%2Ftracker.coppersurfer.tk%3A6969&amp;tr=udp%3A%2F%2Fexodus.desync.com%3A6969","seeders":0,"leechers":1,"uploader":"Zen_Bud","files":-1,"time":1268381558,"description":"General\nComplete name                    : The Spirit.mkv\nFormat                           : Matroska\nFile size                        : 971 MiB\nDuration                         : 1h 38mn\nOverall bit rate                 : 1 379 Kbps\n\n\nVideo\nID                               : 1\nFormat                           : AVC\nDuration                         : 1h 38mn\nBit rate                         : 904 Kbps\nWidth                            : 718 pixels\nHeight                           : 428 pixels\nDisplay aspect ratio             : 2.35:1\nFrame rate                       : 25.000 fps\nResolution                       : 8 bits\nColorimetry                      : 4:2:0\nScan type                        : Progressive\nBits/(Pixel*Frame)               : 0.118\nStream size                      : 636 MiB (66%)\nWriting library                  : x264 core 79\n\n\nAudio\nID                               : 2\nFormat                           : AC-3\nFormat/Info                      : Audio Coding 3\nCodec ID                         : A_AC3\nDuration                         : 1h 38mn\nBit rate mode                    : Constant\nBit rate                         : 448 Kbps\nChannel(s)                       : 6 channels\nChannel positions                : Front: L C R, Surround: L R, LFE\nSampling rate                    : 48.0 KHz\nStream size                      : 315 MiB (32%)\nLanguage                         : English\n\nText #1\nLanguage                         : English\n\nText #2\nLanguage                         : Italian\n\nText #3\nLanguage                         : Spanish\n\nText #4\nLanguage                         : Danish\n\nText #5\nLanguage                         : Finnish\n\nText #6\nLanguage                         : unknown\n\nText #7\nLanguage                         : Norwegian\n\nText #8\nLanguage                         : Swedish\n\nMenu\n00:00:00.000                     : Chapter 01\n\n\n","torrent":{"xt":"urn:btih:b5a21e9b19fd2c25f6f490797d3315064644619c","amp;dn":"The+Spirit.2008.x264.AC3%285.1%29.Multi_Sub.mkv","amp;tr":["udp%3A%2F%2Ftracker.openbittorrent.com%3A80","udp%3A%2F%2Fopen.demonii.com%3A1337","udp%3A%2F%2Ftracker.coppersurfer.tk%3A6969","udp%3A%2F%2Fexodus.desync.com%3A6969"],"infoHash":"b5a21e9b19fd2c25f6f490797d3315064644619c","infoHashBuffer":{"type":"Buffer","data":[181,162,30,155,25,253,44,37,246,244,144,121,125,51,21,6,70,68,97,156]},"announce":[],"urlList":[]}}